<?xml version="1.0" encoding="utf-8"?>
<!-- Generator: Adobe Illustrator 25.2.1, SVG Export Plug-In . SVG Version: 6.00 Build 0)  -->
<svg version="1.1" id="twitter" xmlns="http://www.w3.org/2000/svg" xmlns:xlink="http://www.w3.org/1999/xlink" x="0px" y="0px"
	 viewBox="0 0 48 48" style="enable-background:new 0 0 48 48;" xml:space="preserve">
<style type="text/css">
	.st0{fill:#4267B2;}
	.st1{fill:#FFFFFF;}
</style>
<path id="Rectangle_69" class="st0" d="M3,0h42c1.7,0,3,1.3,3,3v42c0,1.7-1.3,3-3,3H3c-1.7,0-3-1.3-3-3V3C0,1.3,1.3,0,3,0z"/>
<path class="st1" d="M33,26.2l1-6.4h-6.2v-4.2c0-1.8,0.9-3.5,3.6-3.5h2.8V6.7c0,0-2.5-0.4-5-0.4c-5.1,0-8.4,3.1-8.4,8.6v4.9h-5.6
	v6.4h5.6v15.5h6.9V26.2H33z"/>
</svg>
