<svg id="line" xmlns="http://www.w3.org/2000/svg" width="48" height="48" viewBox="0 0 48 48">
  <rect id="Rectangle_68" data-name="Rectangle 68" width="48" height="48" rx="3" fill="#00b900"/>
  <g id="FULL_COLOR_ICON" data-name="FULL COLOR ICON" transform="translate(6.16 7)">
    <g id="TYPE_A" data-name="TYPE A">
      <path id="Path_32" data-name="Path 32" d="M38.76,17.98c0-8-8-14.48-17.84-14.48S3.08,10,3.08,17.98c0,7.16,6.34,13.16,14.92,14.28.58.12,1.38.38,1.58.88a3.7,3.7,0,0,1,0,1.62l-.24,1.52c0,.46-.36,1.76,1.54.96a57.26,57.26,0,0,0,14-10.36h0a12.84,12.84,0,0,0,3.82-8.9" transform="translate(-3.08 -3.5)" fill="#fff"/>
      <path id="Path_33" data-name="Path 33" d="M10.99,8.81H9.73a.36.36,0,0,0-.34.38v7.78a.34.34,0,0,0,.34.34h1.26a.34.34,0,0,0,.34-.34V9.19a.36.36,0,0,0-.34-.34" transform="translate(3.23 1.81)" fill="#00b900"/>
      <path id="Path_34" data-name="Path 34" d="M17.98,8.81H16.74a.36.36,0,0,0-.36.34v4.62l-3.56-4.8H11.3a.36.36,0,0,0-.3.22v7.78a.34.34,0,0,0,.34.34H12.6a.32.32,0,0,0,.34-.34V12.31l3.52,4.88H17.9a.34.34,0,0,0,.36-.34V9.19a.36.36,0,0,0-.36-.34" transform="translate(4.84 1.81)" fill="#00b900"/>
      <path id="Path_35" data-name="Path 35" d="M11.372,15.31H8.012V9.17a.36.36,0,0,0-.34-.34h-1.3a.34.34,0,0,0-.36.34v7.78h0a.32.32,0,0,0,0,.24h0a.32.32,0,0,0,.24,0h5a.34.34,0,0,0,.34-.34V15.59a.36.36,0,0,0-.34-.34" transform="translate(-0.172 1.83)" fill="#00b900"/>
      <path id="Path_36" data-name="Path 36" d="M20.63,10.761a.32.32,0,0,0,.34-.34V9.2a.34.34,0,0,0-.34-.38h-5a.34.34,0,0,0-.24,0h0a.38.38,0,0,0,0,.24h0v7.78h0a.34.34,0,0,0,.1.24h0a.32.32,0,0,0,.24,0h4.9a.32.32,0,0,0,.34-.34v-1.26a.34.34,0,0,0-.34-.34h-3.4v-1.32h3.4a.32.32,0,0,0,.34-.34v-1.26a.34.34,0,0,0-.34-.34h-3.4v-1.12Z" transform="translate(9.21 1.799)" fill="#00b900"/>
    </g>
  </g>
</svg>
