<svg xmlns="http://www.w3.org/2000/svg" viewBox="0 0 48 48"><path d="M45 48H3c-1.7 0-3-1.4-3-3V3c0-1.7 1.4-3 3-3h42c1.7 0 3 1.4 3 3v42c0 1.6-1.4 3-3 3z" fill="#27a6e6"/><path d="M9.3 23.3c7.9-3.4 13.1-5.7 15.6-6.7 7.4-3.1 9-3.6 10-3.6.2 0 .7 0 1 .3.2.2.3.6.3.7 0 .2.1.7 0 1-.5 4.2-2.2 14.6-3.1 19.2-.3 2-1.1 2.7-1.8 2.7-1.6.1-2.7-1-4.2-2-2.4-1.6-3.6-2.5-6-4-2.6-1.7-.9-2.7.6-4.3.3-.5 7.3-6.6 7.4-7.2 0-.1 0-.3-.1-.5-.1-.1-.3-.1-.6 0-.2 0-4 2.5-11.3 7.5-1 .7-2 1.1-3 1-.9 0-2.8-.6-4.2-1-1.7-.6-3-.8-2.8-1.7.3-.5 1-.9 2.2-1.4z" fill="#fff"/></svg>