<svg id="twitter" xmlns="http://www.w3.org/2000/svg" width="48" height="48" viewBox="0 0 48 48">
  <rect id="Rectangle_69" data-name="Rectangle 69" width="48" height="48" rx="3" fill="#1da1f2"/>
  <path id="Path_37" data-name="Path 37" d="M13.9,30.036A17.14,17.14,0,0,0,31.14,12.8v-.78a11.86,11.86,0,0,0,3.02-3.14,13.02,13.02,0,0,1-3.48.96,6.12,6.12,0,0,0,2.7-3.36,12.76,12.76,0,0,1-3.9,1.56,6,6,0,0,0-10.32,5.52,17.16,17.16,0,0,1-12.5-6.42,6,6,0,0,0,1.88,8.1,6.26,6.26,0,0,1-2.74-.76h0a6,6,0,0,0,4.86,6,6,6,0,0,1-2.74,0,6,6,0,0,0,5.66,4.2,12,12,0,0,1-7.52,2.6,11.58,11.58,0,0,1-1.44,0,17.1,17.1,0,0,0,9.28,2.76" transform="translate(4.62 5.964)" fill="#fff"/>
</svg>
