<svg id="youtube" xmlns="http://www.w3.org/2000/svg" width="48" height="33.818" viewBox="0 0 48 33.818">
  <path id="Path_38" data-name="Path 38" d="M47,5.28A6,6,0,0,0,42.758,1C39.019,0,24,0,24,0S8.98,0,5.24,1A6,6,0,0,0,1,5.28,63.337,63.337,0,0,0,0,16.9,63.636,63.636,0,0,0,1,28.538,6,6,0,0,0,5.24,32.8C8.98,33.818,24,33.818,24,33.818s15.019,0,18.759-1.02A6,6,0,0,0,47,28.538,63.636,63.636,0,0,0,48,16.9,63.336,63.336,0,0,0,47,5.28Z" transform="translate(0.001)" fill="#ff0200"/>
  <path id="Path_39" data-name="Path 39" d="M9.54,19.149V4.89L22.1,12.03Z" transform="translate(9.54 4.89)" fill="#fff"/>
</svg>
